<svg xmlns="http://www.w3.org/2000/svg" version="1.1" xmlns:xlink="http://www.w3.org/1999/xlink" width="200" height="200"><svg xmlns="http://www.w3.org/2000/svg" version="1.1" xmlns:xlink="http://www.w3.org/1999/xlink" viewBox="0 0 200 200"><rect width="200" height="200" fill="url('#gradient')"></rect><defs><linearGradient id="SvgjsLinearGradient1001" gradientTransform="rotate(180 0.5 0.5)"><stop offset="0%" stop-color="#c02f2f"></stop><stop offset="100%" stop-color="#489ac0"></stop></linearGradient></defs><g><g fill="#ffffff" transform="matrix(2.624600343506408,0,0,2.624600343506408,0.18422377610366425,118.66516569706829)" stroke="#866067" stroke-width="0.65"><path d="M5.75 0L1.07 0L1.07-14.22L5.65-14.22Q7.54-14.22 9.04-13.36Q10.55-12.51 11.39-10.95Q12.24-9.39 12.25-7.46L12.25-7.46L12.25-6.81Q12.25-4.85 11.42-3.31Q10.60-1.76 9.10-0.88Q7.60-0.01 5.75 0L5.75 0ZM5.65-11.57L4.50-11.57L4.50-2.64L5.69-2.64Q7.17-2.64 7.96-3.69Q8.75-4.74 8.75-6.81L8.75-6.81L8.75-7.42Q8.75-9.48 7.96-10.53Q7.17-11.57 5.65-11.57L5.65-11.57ZM17.66-14.22L17.66 0L14.24 0L14.24-14.22L17.66-14.22ZM28.86-8.57L28.86-6.03L23.47-6.03L23.47-2.64L29.83-2.64L29.83 0L20.04 0L20.04-14.22L29.85-14.22L29.85-11.57L23.47-11.57L23.47-8.57L28.86-8.57ZM42.87-7.60L42.87-1.76Q42.08-0.88 40.56-0.34Q39.03 0.20 37.22 0.20L37.22 0.20Q34.42 0.20 32.75-1.51Q31.08-3.22 30.97-6.27L30.97-6.27L30.96-7.50Q30.96-9.60 31.70-11.17Q32.44-12.73 33.82-13.58Q35.21-14.42 37.02-14.42L37.02-14.42Q39.68-14.42 41.15-13.21Q42.62-11.99 42.86-9.58L42.86-9.58L39.56-9.58Q39.38-10.77 38.80-11.28Q38.21-11.79 37.14-11.79L37.14-11.79Q35.85-11.79 35.15-10.69Q34.44-9.60 34.43-7.57L34.43-7.57L34.43-6.71Q34.43-4.58 35.16-3.51Q35.89-2.44 37.45-2.44L37.45-2.44Q38.79-2.44 39.44-3.04L39.44-3.04L39.44-5.24L37.06-5.24L37.06-7.60L42.87-7.60ZM56.90-7.47L56.90-6.82Q56.90-4.74 56.13-3.13Q55.36-1.53 53.94-0.67Q52.52 0.20 50.70 0.20Q48.89 0.20 47.48-0.64Q46.07-1.47 45.29-3.03Q44.50-4.58 44.46-6.59L44.46-6.59L44.46-7.39Q44.46-9.48 45.23-11.08Q46.00-12.68 47.43-13.54Q48.86-14.41 50.68-14.41L50.68-14.41Q52.49-14.41 53.91-13.55Q55.32-12.70 56.11-11.11Q56.89-9.52 56.90-7.47L56.90-7.47ZM53.42-6.76L53.42-7.41Q53.42-9.53 52.71-10.63Q52.00-11.73 50.68-11.73L50.68-11.73Q48.11-11.73 47.96-7.86L47.96-7.86L47.95-6.82Q47.95-4.73 48.64-3.60Q49.34-2.48 50.70-2.48L50.70-2.48Q52.00-2.48 52.71-3.58Q53.41-4.69 53.42-6.76L53.42-6.76ZM59.37-3.19L59.37-3.19Q60.15-3.19 60.66-2.73Q61.18-2.27 61.18-1.54Q61.18-0.82 60.66-0.36Q60.15 0.11 59.37 0.11L59.37 0.11Q58.57 0.11 58.06-0.36Q57.55-0.83 57.55-1.54Q57.55-2.26 58.06-2.72Q58.57-3.19 59.37-3.19ZM71.32 0L68.81-5.02L66.95-5.02L66.95 0L63.53 0L63.53-14.22L69.12-14.22Q71.65-14.22 73.08-13.10Q74.50-11.97 74.50-9.92L74.50-9.92Q74.50-8.44 73.90-7.46Q73.30-6.48 72.02-5.88L72.02-5.88L74.99-0.15L74.99 0L71.32 0ZM66.95-11.57L66.95-7.67L69.12-7.67Q70.10-7.67 70.59-8.18Q71.08-8.69 71.08-9.61Q71.08-10.53 70.59-11.05Q70.09-11.57 69.12-11.57L69.12-11.57L66.95-11.57Z"></path></g></g></svg><style>@media (prefers-color-scheme: light) { :root { filter: none; } }
@media (prefers-color-scheme: dark) { :root { filter: none; } }
</style></svg>